<svg xmlns="http://www.w3.org/2000/svg" xmlns:xlink="http://www.w3.org/1999/xlink" width="11" height="9" viewBox="0 0 11 9"><defs><path id="cz54a" d="M388.81 1104.6l-1.92 1.93a.64.64 0 0 1-.91-.91l1.47-1.48-1.48-1.47a.64.64 0 0 1 .91-.91l1.93 1.93a.64.64 0 0 1 0 .91zm-4.5 1.02c.12.11.19.27.19.45a.64.64 0 0 1-1.1.46l-1.93-1.93a.64.64 0 0 1-.18-.46c0-.18.07-.34.18-.45l1.93-1.93a.64.64 0 0 1 .91.91l-1.47 1.47zm5.33-5.33h-1.28v-.65a.64.64 0 0 0-.65-.64h-1.28a.64.64 0 0 0-.64.64v.65h-1.29v-.65a.64.64 0 0 0-.64-.64h-1.29a.64.64 0 0 0-.64.64v.65h-1.29a.64.64 0 0 0-.64.64v6.43c0 .35.29.64.64.64h9c.36 0 .65-.29.65-.64v-6.43a.64.64 0 0 0-.65-.64z"/></defs><g><g transform="translate(-380 -1099)"><use fill="#42484f" xlink:href="#cz54a"/></g></g></svg>