<svg xmlns="http://www.w3.org/2000/svg" xmlns:xlink="http://www.w3.org/1999/xlink" width="8" height="8" viewBox="0 0 8 8"><defs><path id="acdua" d="M888.5 1896h-2a.5.5 0 0 0 0 1h.8l-1.65 1.65c-.1.1-.15.2-.15.35 0 .25.2.5.5.5.15 0 .25-.05.35-.15l1.65-1.65v.8c0 .3.2.5.5.5.25 0 .5-.2.5-.5v-2a.5.5 0 0 0-.5-.5zm0 3.75c-.4 0-.75-.2-1-.5l-.6.6c-.2.25-.55.35-.9.35-.7.05-1.25-.5-1.25-1.2 0-.35.15-.65.35-.9l.65-.6c-.3-.25-.5-.6-.5-1 0-.15.05-.35.1-.5H885c-2.2 0-4 1.8-4 4s1.8 4 4 4 4-1.8 4-4v-.35c-.15.05-.3.1-.5.1z"/></defs><g><g transform="translate(-881 -1896)"><use fill="#42484f" xlink:href="#acdua"/></g></g></svg>