<svg xmlns="http://www.w3.org/2000/svg" xmlns:xlink="http://www.w3.org/1999/xlink" width="9" height="10" viewBox="0 0 9 10"><defs><path id="uvhva" d="M4216.36 223.79l-3.57-3.58a.65.65 0 0 0-.5-.21.65.65 0 0 0-.5.21l-3.58 3.58a.65.65 0 0 0-.21.5c0 .42.36.71.71.71.22 0 .36-.07.5-.21l2.36-2.36v6.86c0 .42.29.71.72.71.42 0 .71-.29.71-.71v-6.86l2.36 2.36c.14.14.28.21.5.21.43 0 .71-.29.71-.71a.65.65 0 0 0-.21-.5z"/></defs><g><g opacity=".8" transform="translate(-4208 -220)"><use fill="#fff" xlink:href="#uvhva"/></g></g></svg>