<svg xmlns="http://www.w3.org/2000/svg" xmlns:xlink="http://www.w3.org/1999/xlink" width="7" height="8" viewBox="0 0 7 8"><defs><path id="5z8ua" d="M2227.69 337.03l-2.86-2.86a.52.52 0 0 0-.4-.17.52.52 0 0 0-.4.17l-2.86 2.86a.52.52 0 0 0-.17.4c0 .34.29.57.57.57.17 0 .29-.06.4-.17l1.89-1.89v5.49c0 .34.23.57.57.57.34 0 .57-.23.57-.57v-5.49l1.89 1.89c.11.11.22.17.4.17.34 0 .57-.23.57-.57a.52.52 0 0 0-.17-.4z"/></defs><g><g transform="translate(-2221 -334)"><use fill="#d83b36" xlink:href="#5z8ua"/></g></g></svg>