<svg xmlns="http://www.w3.org/2000/svg" xmlns:xlink="http://www.w3.org/1999/xlink" width="25" height="26" viewBox="0 0 25 26"><defs><path id="paova" d="M18.08 22.64c0-4.25 4.8-6.14 9.65-6.14 4.8 0 9.61 1.9 9.61 6.14 0 4.3-4.8 6.14-9.6 6.14-4.86 0-9.66-1.84-9.66-6.14zm-2.08 0c0 5.68 5.4 8.64 11.73 8.64s11.69-2.96 11.69-8.64c0-5.68-5.36-8.64-11.69-8.64C21.4 14 16 16.96 16 22.64z"/><path id="paovc" d="M32.04 36.64c-4.25 0-6.15-4.8-6.15-9.65 0-4.8 1.9-9.61 6.15-9.61 4.3 0 6.14 4.8 6.14 9.6 0 4.86-1.85 9.66-6.14 9.66zm0 2.08c5.68 0 8.64-5.4 8.64-11.73S37.72 15.3 32.04 15.3c-5.68 0-8.64 5.36-8.64 11.69 0 6.33 2.96 11.73 8.64 11.73z"/><path id="paove" d="M17.49 23.52c0-4.15 4.7-6 9.43-6 4.7 0 9.39 1.85 9.39 6 0 4.2-4.7 6-9.39 6-4.74 0-9.43-1.8-9.43-6zm-2.03 0c0 5.55 5.28 8.44 11.46 8.44 6.18 0 11.42-2.9 11.42-8.44 0-5.55-5.24-8.44-11.42-8.44s-11.46 2.89-11.46 8.44z"/><linearGradient id="paovb" x1="27.71" x2="33.48" y1="12" y2="21.87" gradientUnits="userSpaceOnUse"><stop offset="0" stop-color="#a4a2a2"/><stop offset="1" stop-color="#fff"/></linearGradient><linearGradient id="paovd" x1="25.7" x2="30.09" y1="12.93" y2="28.7" gradientUnits="userSpaceOnUse"><stop offset="0" stop-color="#a1a1a1"/><stop offset="1" stop-color="#fff"/></linearGradient><linearGradient id="paovf" x1="17.32" x2="24.14" y1="16.12" y2="17.54" gradientUnits="userSpaceOnUse"><stop offset="0" stop-color="#fff"/><stop offset=".89" stop-color="#fff"/><stop offset="1" stop-color="#fff" stop-opacity="0"/></linearGradient></defs><g><g transform="translate(-16 -13)"><g><use fill="url(#paovb)" xlink:href="#paova"/></g><g><use fill="url(#paovd)" xlink:href="#paovc"/></g><g><use fill="url(#paovf)" xlink:href="#paove"/></g></g></g></svg>